# xmcd
#
# Track frame offsets: 
#        150
#        13010
#        23472
#        44327
#        55572
#        67527
#        79400
#        92115
#        111807
#        125847
#        135525
#        149680
#        169347
#        183182
#        207372
#        221302
#
# Disc length: 3080 seconds
#
# Revision: 6
# Processed by: cddbd v1.5.2PL0 Copyright (c) Steve Scherf et al.
# Submitted via: ExactAudioCopy v1.0b3
#
DISCID=db0c0610
DTITLE=Cash, Johnny - Murder
DYEAR=2000
DGENRE=Country
TTITLE0=Folsom Prison Blues (Mono)
TTITLE1=Delia's Gone (Mono)
TTITLE2=Mister Garfield
TTITLE3=Orleans Parish Prison (Live)
TTITLE4=When It's Springtime In Alaska (It's Forty Below) (Mono)
TTITLE5=The Sound Of Laughter
TTITLE6=Cocaine Blues (Live)
TTITLE7=Hardin Wouldn't Run (Mono)
TTITLE8=The Long Black Veil
TTITLE9=Austin Prison
TTITLE10=Joe Bean
TTITLE11=Going To Memphis
TTITLE12=Don't Take Your Guns To Town
TTITLE13=Highway Patrolman
TTITLE14=Jacob Green
TTITLE15=The Wall
EXTD=YEAR: 2000
EXTT0=
EXTT1=
EXTT2=
EXTT3=
EXTT4=
EXTT5=
EXTT6=
EXTT7=
EXTT8=
EXTT9=
EXTT10=
EXTT11=
EXTT12=
EXTT13=
EXTT14=
EXTT15=
PLAYORDER=
